{
  "accessors": [
    {
      "bufferView": 2,
      "componentType": 5126,
      "count": 65532,
      "max": [
        276.1649169921875,
        -483.207763671875,
        172.79376220703125
      ],
      "min": [
        -66.40999603271484,
        -959.598388671875,
        -144.884033203125
      ],
      "type": "VEC3"
    },
    {
      "bufferView": 2,
      "byteOffset": 786384,
      "componentType": 5126,
      "count": 65532,
      "max": [
        0.9999898076057434,
        0.9996936321258545,
        0.9999998807907104
      ],
      "min": [
        -0.9996682405471802,
        -0.9985493421554565,
        -0.9999714493751526
      ],
      "type": "VEC3"
    },
    {
      "bufferView": 1,
      "componentType": 5126,
      "count": 65532,
      "max": [
        0.9960690140724182,
        0.13940399885177612
      ],
      "min": [
        0.0005130000063218176,
        0.0034180283546447754
      ],
      "type": "VEC2"
    },
    {
      "bufferView": 0,
      "componentType": 5125,
      "count": 65532,
      "type": "SCALAR"
    },
    {
      "bufferView": 2,
      "byteOffset": 1572768,
      "componentType": 5126,
      "count": 65532,
      "max": [
        194.46844482421875,
        -262.5703125,
        144.210205078125
      ],
      "min": [
        -167.9261474609375,
        -1565.210693359375,
        -145.5172119140625
      ],
      "type": "VEC3"
    },
    {
      "bufferView": 2,
      "byteOffset": 2359152,
      "componentType": 5126,
      "count": 65532,
      "max": [
        0.9996962547302246,
        0.999851644039154,
        0.9999954104423523
      ],
      "min": [
        -0.9999880790710449,
        -0.9993382096290588,
        -0.9999486207962036
      ],
      "type": "VEC3"
    },
    {
      "bufferView": 1,
      "byteOffset": 524256,
      "componentType": 5126,
      "count": 65532,
      "max": [
        0.9960690140724182,
        0.6757810115814209
      ],
      "min": [
        0.0005130000063218176,
        0.1367189884185791
      ],
      "type": "VEC2"
    },
    {
      "bufferView": 0,
      "byteOffset": 262128,
      "componentType": 5125,
      "count": 65532,
      "type": "SCALAR"
    },
    {
      "bufferView": 2,
      "byteOffset": 3145536,
      "componentType": 5126,
      "count": 65532,
      "max": [
        189.54788208007813,
        -722.323486328125,
        138.27764892578125
      ],
      "min": [
        -210.226318359375,
        -1405.4208984375,
        -213.32611083984375
      ],
      "type": "VEC3"
    },
    {
      "bufferView": 2,
      "byteOffset": 3931920,
      "componentType": 5126,
      "count": 65532,
      "max": [
        0.996987521648407,
        0.9999373555183411,
        0.9999983906745911
      ],
      "min": [
        -0.9999788403511047,
        -0.9995734095573425,
        -0.9998581409454346
      ],
      "type": "VEC3"
    },
    {
      "bufferView": 1,
      "byteOffset": 1048512,
      "componentType": 5126,
      "count": 65532,
      "max": [
        0.9960690140724182,
        0.9074710011482239
      ],
      "min": [
        0.0005130000063218176,
        0.6730960011482239
      ],
      "type": "VEC2"
    },
    {
      "bufferView": 0,
      "byteOffset": 524256,
      "componentType": 5125,
      "count": 65532,
      "type": "SCALAR"
    },
    {
      "bufferView": 2,
      "byteOffset": 4718304,
      "componentType": 5126,
      "count": 65532,
      "max": [
        20.6502685546875,
        -22.6025390625,
        126.64244842529297
      ],
      "min": [
        -209.4530029296875,
        -1029.26513671875,
        -74.4150390625
      ],
      "type": "VEC3"
    },
    {
      "bufferView": 2,
      "byteOffset": 5504688,
      "componentType": 5126,
      "count": 65532,
      "max": [
        0.9981935620307922,
        0.9996009469032288,
        0.999585747718811
      ],
      "min": [
        -0.9999276399612427,
        -0.9993382096290588,
        -0.9999083876609802
      ],
      "type": "VEC3"
    },
    {
      "bufferView": 1,
      "byteOffset": 1572768,
      "componentType": 5126,
      "count": 65532,
      "max": [
        0.9960690140724182,
        0.9995120167732239
      ],
      "min": [
        0.0005130000063218176,
        0.8603519797325134
      ],
      "type": "VEC2"
    },
    {
      "bufferView": 0,
      "byteOffset": 786384,
      "componentType": 5125,
      "count": 65532,
      "type": "SCALAR"
    },
    {
      "bufferView": 2,
      "byteOffset": 6291072,
      "componentType": 5126,
      "count": 65532,
      "max": [
        198.31857299804688,
        -749.2626953125,
        136.9527587890625
      ],
      "min": [
        -156.31698608398438,
        -1794.6336669921875,
        -213.074951171875
      ],
      "type": "VEC3"
    },
    {
      "bufferView": 2,
      "byteOffset": 7077456,
      "componentType": 5126,
      "count": 65532,
      "max": [
        0.9993547797203064,
        0.9999713897705078,
        0.9999868869781494
      ],
      "min": [
        -0.9999644160270691,
        -0.9993104934692383,
        -0.9999973177909851
      ],
      "type": "VEC3"
    },
    {
      "bufferView": 1,
      "byteOffset": 2097024,
      "componentType": 5126,
      "count": 65532,
      "max": [
        0.9960690140724182,
        0.8630369901657104
      ],
      "min": [
        0.0005130000063218176,
        0.5302730202674866
      ],
      "type": "VEC2"
    },
    {
      "bufferView": 0,
      "byteOffset": 1048512,
      "componentType": 5125,
      "count": 65532,
      "type": "SCALAR"
    },
    {
      "bufferView": 2,
      "byteOffset": 7863840,
      "componentType": 5126,
      "count": 65532,
      "max": [
        202.59210205078125,
        2.8935546875,
        217.977783203125
      ],
      "min": [
        -189.8831787109375,
        -1827.0928955078125,
        -155.42987060546875
      ],
      "type": "VEC3"
    },
    {
      "bufferView": 2,
      "byteOffset": 8650224,
      "componentType": 5126,
      "count": 65532,
      "max": [
        0.9999610185623169,
        0.9979240298271179,
        0.9999570846557617
      ],
      "min": [
        -0.9997548460960388,
        -0.9994199872016907,
        -0.9998986124992371
      ],
      "type": "VEC3"
    },
    {
      "bufferView": 1,
      "byteOffset": 2621280,
      "componentType": 5126,
      "count": 65532,
      "max": [
        0.9960690140724182,
        0.532958984375
      ],
      "min": [
        0.0005130000063218176,
        0.3937990069389343
      ],
      "type": "VEC2"
    },
    {
      "bufferView": 0,
      "byteOffset": 1310640,
      "componentType": 5125,
      "count": 65532,
      "type": "SCALAR"
    },
    {
      "bufferView": 2,
      "byteOffset": 9436608,
      "componentType": 5126,
      "count": 65532,
      "max": [
        210.55633544921875,
        -7.834228515625,
        158.2496337890625
      ],
      "min": [
        -173.79217529296875,
        -491.545654296875,
        -182.9866943359375
      ],
      "type": "VEC3"
    },
    {
      "bufferView": 2,
      "byteOffset": 10222992,
      "componentType": 5126,
      "count": 65532,
      "max": [
        0.9996071457862854,
        0.9996206164360046,
        0.9998252391815186
      ],
      "min": [
        -0.9999967813491821,
        -0.996592104434967,
        -0.9999903440475464
      ],
      "type": "VEC3"
    },
    {
      "bufferView": 1,
      "byteOffset": 3145536,
      "componentType": 5126,
      "count": 65532,
      "max": [
        0.9960690140724182,
        0.39648401737213135
      ],
      "min": [
        0.0005130000063218176,
        0.2573239803314209
      ],
      "type": "VEC2"
    },
    {
      "bufferView": 0,
      "byteOffset": 1572768,
      "componentType": 5125,
      "count": 65532,
      "type": "SCALAR"
    },
    {
      "bufferView": 2,
      "byteOffset": 11009376,
      "componentType": 5126,
      "count": 21690,
      "max": [
        243.9049072265625,
        -195.366943359375,
        33.01293182373047
      ],
      "min": [
        53.7762451171875,
        -539.619873046875,
        -163.0565185546875
      ],
      "type": "VEC3"
    },
    {
      "bufferView": 2,
      "byteOffset": 11269656,
      "componentType": 5126,
      "count": 21690,
      "max": [
        0.99979168176651,
        0.9996829628944397,
        0.9994738698005676
      ],
      "min": [
        -0.9999288320541382,
        -0.9675276279449463,
        -0.9999227523803711
      ],
      "type": "VEC3"
    },
    {
      "bufferView": 1,
      "byteOffset": 3669792,
      "componentType": 5126,
      "count": 21690,
      "max": [
        0.9960690140724182,
        0.2600100040435791
      ],
      "min": [
        0.0005130000063218176,
        0.21289098262786865
      ],
      "type": "VEC2"
    },
    {
      "bufferView": 0,
      "byteOffset": 1834896,
      "componentType": 5125,
      "count": 21690,
      "type": "SCALAR"
    },
    {
      "bufferView": 2,
      "byteOffset": 11529936,
      "componentType": 5126,
      "count": 65532,
      "max": [
        414.2114562988281,
        2.912841796875,
        188.881103515625
      ],
      "min": [
        -195.62069702148438,
        -1811.353759765625,
        -211.41607666015625
      ],
      "type": "VEC3"
    },
    {
      "bufferView": 2,
      "byteOffset": 12316320,
      "componentType": 5126,
      "count": 65532,
      "max": [
        0.9999197721481323,
        0.9999082088470459,
        0.9999771118164063
      ],
      "min": [
        -0.9999222159385681,
        -0.9995705485343933,
        -0.9998275637626648
      ],
      "type": "VEC3"
    },
    {
      "bufferView": 1,
      "byteOffset": 3843312,
      "componentType": 5126,
      "count": 65532,
      "max": [
        0.9960690140724182,
        0.6662600040435791
      ],
      "min": [
        0.0005130000063218176,
        0.1271970272064209
      ],
      "type": "VEC2"
    },
    {
      "bufferView": 0,
      "byteOffset": 1921656,
      "componentType": 5125,
      "count": 65532,
      "type": "SCALAR"
    },
    {
      "bufferView": 2,
      "byteOffset": 13102704,
      "componentType": 5126,
      "count": 65532,
      "max": [
        391.51275634765625,
        -1072.628662109375,
        158.17333984375
      ],
      "min": [
        21.5533447265625,
        -1598.15771484375,
        -214.97662353515625
      ],
      "type": "VEC3"
    },
    {
      "bufferView": 2,
      "byteOffset": 13889088,
      "componentType": 5126,
      "count": 65532,
      "max": [
        0.9999357461929321,
        0.999886155128479,
        0.9999514818191528
      ],
      "min": [
        -0.9997060894966125,
        -0.9899196028709412,
        -0.9999029636383057
      ],
      "type": "VEC3"
    },
    {
      "bufferView": 1,
      "byteOffset": 4367568,
      "componentType": 5126,
      "count": 65532,
      "max": [
        0.9960690140724182,
        0.7995610237121582
      ],
      "min": [
        0.0005130000063218176,
        0.6635739803314209
      ],
      "type": "VEC2"
    },
    {
      "bufferView": 0,
      "byteOffset": 2183784,
      "componentType": 5125,
      "count": 65532,
      "type": "SCALAR"
    },
    {
      "bufferView": 2,
      "byteOffset": 14675472,
      "componentType": 5126,
      "count": 65532,
      "max": [
        361.250244140625,
        -692.341552734375,
        186.27642822265625
      ],
      "min": [
        -26.104515075683594,
        -1256.517333984375,
        -202.6593017578125
      ],
      "type": "VEC3"
    },
    {
      "bufferView": 2,
      "byteOffset": 15461856,
      "componentType": 5126,
      "count": 65532,
      "max": [
        0.9999847412109375,
        0.998822808265686,
        0.9999243021011353
      ],
      "min": [
        -0.9972966313362122,
        -0.9991883039474487,
        -0.9999789595603943
      ],
      "type": "VEC3"
    },
    {
      "bufferView": 1,
      "byteOffset": 4891824,
      "componentType": 5126,
      "count": 65532,
      "max": [
        0.9960690140724182,
        0.9995120167732239
      ],
      "min": [
        0.0005130000063218176,
        0.796875
      ],
      "type": "VEC2"
    },
    {
      "bufferView": 0,
      "byteOffset": 2445912,
      "componentType": 5125,
      "count": 65532,
      "type": "SCALAR"
    },
    {
      "bufferView": 2,
      "byteOffset": 16248240,
      "componentType": 5126,
      "count": 65532,
      "max": [
        381.350830078125,
        -9.424072265625,
        173.33917236328125
      ],
      "min": [
        10.182586669921875,
        -1809.041015625,
        -202.80535888671875
      ],
      "type": "VEC3"
    },
    {
      "bufferView": 2,
      "byteOffset": 17034624,
      "componentType": 5126,
      "count": 65532,
      "max": [
        0.9999347925186157,
        0.999520480632782,
        0.9998816251754761
      ],
      "min": [
        -0.9997731447219849,
        -0.9996639490127563,
        -0.9999308586120605
      ],
      "type": "VEC3"
    },
    {
      "bufferView": 1,
      "byteOffset": 5416080,
      "componentType": 5126,
      "count": 65532,
      "max": [
        0.9960690140724182,
        0.8725590109825134
      ],
      "min": [
        0.0005130000063218176,
        0.5397949814796448
      ],
      "type": "VEC2"
    },
    {
      "bufferView": 0,
      "byteOffset": 2708040,
      "componentType": 5125,
      "count": 65532,
      "type": "SCALAR"
    },
    {
      "bufferView": 2,
      "byteOffset": 17821008,
      "componentType": 5126,
      "count": 65532,
      "max": [
        417.88116455078125,
        -236.728759765625,
        112.07390594482422
      ],
      "min": [
        189.04681396484375,
        -1280.786376953125,
        -137.679443359375
      ],
      "type": "VEC3"
    },
    {
      "bufferView": 2,
      "byteOffset": 18607392,
      "componentType": 5126,
      "count": 65532,
      "max": [
        0.9999984502792358,
        0.9997923374176025,
        0.9999998211860657
      ],
      "min": [
        -0.9996085166931152,
        -0.9964138865470886,
        -0.9997841715812683
      ],
      "type": "VEC3"
    },
    {
      "bufferView": 1,
      "byteOffset": 5940336,
      "componentType": 5126,
      "count": 65532,
      "max": [
        0.9960690140724182,
        0.5424799919128418
      ],
      "min": [
        0.0005130000063218176,
        0.4033200144767761
      ],
      "type": "VEC2"
    },
    {
      "bufferView": 0,
      "byteOffset": 2970168,
      "componentType": 5125,
      "count": 65532,
      "type": "SCALAR"
    },
    {
      "bufferView": 2,
      "byteOffset": 19393776,
      "componentType": 5126,
      "count": 65532,
      "max": [
        397.8584899902344,
        2.912841796875,
        217.662109375
      ],
      "min": [
        -191.52093505859375,
        -1618.129150390625,
        -195.4464111328125
      ],
      "type": "VEC3"
    },
    {
      "bufferView": 2,
      "byteOffset": 20180160,
      "componentType": 5126,
      "count": 65532,
      "max": [
        0.9999758005142212,
        0.9999872446060181,
        0.9998571872711182
      ],
      "min": [
        -0.9999268651008606,
        -0.999732255935669,
        -0.9999584555625916
      ],
      "type": "VEC3"
    },
    {
      "bufferView": 1,
      "byteOffset": 6464592,
      "componentType": 5126,
      "count": 65532,
      "max": [
        0.9960690140724182,
        0.40600597858428955
      ],
      "min": [
        0.0005130000063218176,
        0.2668460011482239
      ],
      "type": "VEC2"
    },
    {
      "bufferView": 0,
      "byteOffset": 3232296,
      "componentType": 5125,
      "count": 65532,
      "type": "SCALAR"
    },
    {
      "bufferView": 2,
      "byteOffset": 20966544,
      "componentType": 5126,
      "count": 26388,
      "max": [
        415.1388244628906,
        2.3955078125,
        144.41357421875
      ],
      "min": [
        -173.73712158203125,
        -1707.480712890625,
        -197.778076171875
      ],
      "type": "VEC3"
    },
    {
      "bufferView": 2,
      "byteOffset": 21283200,
      "componentType": 5126,
      "count": 26388,
      "max": [
        0.9997693300247192,
        0.9999878406524658,
        0.9998804926872253
      ],
      "min": [
        -0.9994173645973206,
        -0.9999298453330994,
        -0.9996660947799683
      ],
      "type": "VEC3"
    },
    {
      "bufferView": 1,
      "byteOffset": 6988848,
      "componentType": 5126,
      "count": 26388,
      "max": [
        0.9960690140724182,
        0.2695310115814209
      ],
      "min": [
        0.0005130000063218176,
        0.21289098262786865
      ],
      "type": "VEC2"
    },
    {
      "bufferView": 0,
      "byteOffset": 3494424,
      "componentType": 5125,
      "count": 26388,
      "type": "SCALAR"
    }
  ],
  "asset": {
    "extras": {
      "author": "CIMtech Inc. (https://sketchfab.com/cimtech)",
      "license": "CC-BY-4.0 (http://creativecommons.org/licenses/by/4.0/)",
      "source": "https://sketchfab.com/3d-models/3d-scanned-clothed-mannequin-artec-eva-d36aaecf0a234c148cde46a9a02cd08b",
      "title": "3D Scanned Clothed Mannequin - Artec Eva"
    },
    "generator": "Sketchfab-12.67.0",
    "version": "2.0"
  },
  "bufferViews": [
    {
      "buffer": 0,
      "byteLength": 3599976,
      "name": "floatBufferViews",
      "target": 34963
    },
    {
      "buffer": 0,
      "byteLength": 7199952,
      "byteOffset": 3599976,
      "byteStride": 8,
      "name": "floatBufferViews",
      "target": 34962
    },
    {
      "buffer": 0,
      "byteLength": 21599856,
      "byteOffset": 10799928,
      "byteStride": 12,
      "name": "floatBufferViews",
      "target": 34962
    }
  ],
  "buffers": [
    {
      "byteLength": 32399784,
      "uri": "scene.bin"
    }
  ],
  "images": [
    {
      "uri": "textures/material_0_baseColor.jpeg"
    },
    {
      "uri": "textures/material_1_baseColor.jpeg"
    }
  ],
  "materials": [
    {
      "doubleSided": true,
      "name": "material_0",
      "pbrMetallicRoughness": {
        "baseColorTexture": {
          "index": 0
        },
        "metallicFactor": 0.0,
        "roughnessFactor": 0.6
      }
    },
    {
      "doubleSided": true,
      "name": "material_1",
      "pbrMetallicRoughness": {
        "baseColorTexture": {
          "index": 1
        },
        "metallicFactor": 0.0,
        "roughnessFactor": 0.6
      }
    }
  ],
  "meshes": [
    {
      "name": "Object_0",
      "primitives": [
        {
          "attributes": {
            "NORMAL": 1,
            "POSITION": 0,
            "TEXCOORD_0": 2
          },
          "indices": 3,
          "material": 0,
          "mode": 4
        }
      ]
    },
    {
      "name": "Object_1",
      "primitives": [
        {
          "attributes": {
            "NORMAL": 5,
            "POSITION": 4,
            "TEXCOORD_0": 6
          },
          "indices": 7,
          "material": 0,
          "mode": 4
        }
      ]
    },
    {
      "name": "Object_2",
      "primitives": [
        {
          "attributes": {
            "NORMAL": 9,
            "POSITION": 8,
            "TEXCOORD_0": 10
          },
          "indices": 11,
          "material": 0,
          "mode": 4
        }
      ]
    },
    {
      "name": "Object_3",
      "primitives": [
        {
          "attributes": {
            "NORMAL": 13,
            "POSITION": 12,
            "TEXCOORD_0": 14
          },
          "indices": 15,
          "material": 0,
          "mode": 4
        }
      ]
    },
    {
      "name": "Object_4",
      "primitives": [
        {
          "attributes": {
            "NORMAL": 17,
            "POSITION": 16,
            "TEXCOORD_0": 18
          },
          "indices": 19,
          "material": 0,
          "mode": 4
        }
      ]
    },
    {
      "name": "Object_5",
      "primitives": [
        {
          "attributes": {
            "NORMAL": 21,
            "POSITION": 20,
            "TEXCOORD_0": 22
          },
          "indices": 23,
          "material": 0,
          "mode": 4
        }
      ]
    },
    {
      "name": "Object_6",
      "primitives": [
        {
          "attributes": {
            "NORMAL": 25,
            "POSITION": 24,
            "TEXCOORD_0": 26
          },
          "indices": 27,
          "material": 0,
          "mode": 4
        }
      ]
    },
    {
      "name": "Object_7",
      "primitives": [
        {
          "attributes": {
            "NORMAL": 29,
            "POSITION": 28,
            "TEXCOORD_0": 30
          },
          "indices": 31,
          "material": 0,
          "mode": 4
        }
      ]
    },
    {
      "name": "Object_8",
      "primitives": [
        {
          "attributes": {
            "NORMAL": 33,
            "POSITION": 32,
            "TEXCOORD_0": 34
          },
          "indices": 35,
          "material": 1,
          "mode": 4
        }
      ]
    },
    {
      "name": "Object_9",
      "primitives": [
        {
          "attributes": {
            "NORMAL": 37,
            "POSITION": 36,
            "TEXCOORD_0": 38
          },
          "indices": 39,
          "material": 1,
          "mode": 4
        }
      ]
    },
    {
      "name": "Object_10",
      "primitives": [
        {
          "attributes": {
            "NORMAL": 41,
            "POSITION": 40,
            "TEXCOORD_0": 42
          },
          "indices": 43,
          "material": 1,
          "mode": 4
        }
      ]
    },
    {
      "name": "Object_11",
      "primitives": [
        {
          "attributes": {
            "NORMAL": 45,
            "POSITION": 44,
            "TEXCOORD_0": 46
          },
          "indices": 47,
          "material": 1,
          "mode": 4
        }
      ]
    },
    {
      "name": "Object_12",
      "primitives": [
        {
          "attributes": {
            "NORMAL": 49,
            "POSITION": 48,
            "TEXCOORD_0": 50
          },
          "indices": 51,
          "material": 1,
          "mode": 4
        }
      ]
    },
    {
      "name": "Object_13",
      "primitives": [
        {
          "attributes": {
            "NORMAL": 53,
            "POSITION": 52,
            "TEXCOORD_0": 54
          },
          "indices": 55,
          "material": 1,
          "mode": 4
        }
      ]
    },
    {
      "name": "Object_14",
      "primitives": [
        {
          "attributes": {
            "NORMAL": 57,
            "POSITION": 56,
            "TEXCOORD_0": 58
          },
          "indices": 59,
          "material": 1,
          "mode": 4
        }
      ]
    }
  ],
  "nodes": [
    {
      "children": [
        1
      ],
      "matrix": [
        -0.0019052042145549508,
        0.00012679862574139535,
        5.9795730422273113e-05,
        0.0,
        -9.395955459700006e-05,
        -0.0017596671394207524,
        0.0007376988116917188,
        0.0,
        0.00010404337406039839,
        0.0007327687539891883,
        0.001761159126072859,
        0.0,
        134.82699584960938,
        -840.7011718750002,
        1253.3549804687498,
        1.0
      ],
      "name": "Sketchfab_model"
    },
    {
      "children": [
        2,
        3,
        4,
        5,
        6,
        7,
        8,
        9,
        10,
        11,
        12,
        13,
        14,
        15,
        16
      ],
      "name": "mannequine_clothed.obj.cleaner"
    },
    {
      "mesh": 0,
      "name": "Object_2"
    },
    {
      "mesh": 1,
      "name": "Object_3"
    },
    {
      "mesh": 2,
      "name": "Object_4"
    },
    {
      "mesh": 3,
      "name": "Object_5"
    },
    {
      "mesh": 4,
      "name": "Object_6"
    },
    {
      "mesh": 5,
      "name": "Object_7"
    },
    {
      "mesh": 6,
      "name": "Object_8"
    },
    {
      "mesh": 7,
      "name": "Object_9"
    },
    {
      "mesh": 8,
      "name": "Object_10"
    },
    {
      "mesh": 9,
      "name": "Object_11"
    },
    {
      "mesh": 10,
      "name": "Object_12"
    },
    {
      "mesh": 11,
      "name": "Object_13"
    },
    {
      "mesh": 12,
      "name": "Object_14"
    },
    {
      "mesh": 13,
      "name": "Object_15"
    },
    {
      "mesh": 14,
      "name": "Object_16"
    }
  ],
  "samplers": [
    {
      "magFilter": 9729,
      "minFilter": 9987,
      "wrapS": 10497,
      "wrapT": 10497
    }
  ],
  "scene": 0,
  "scenes": [
    {
      "name": "Sketchfab_Scene",
      "nodes": [
        0
      ]
    }
  ],
  "textures": [
    {
      "sampler": 0,
      "source": 0
    },
    {
      "sampler": 0,
      "source": 1
    }
  ]
}
