{
  "accessors": [
    {
      "bufferView": 2,
      "componentType": 5126,
      "count": 20,
      "max": [
        275.0,
        225.0,
        0.0
      ],
      "min": [
        -275.0,
        -225.0,
        -8.0
      ],
      "type": "VEC3"
    },
    {
      "bufferView": 2,
      "byteOffset": 240,
      "componentType": 5126,
      "count": 20,
      "max": [
        1.0,
        1.0,
        1.0
      ],
      "min": [
        -1.0,
        -1.0,
        0.0
      ],
      "type": "VEC3"
    },
    {
      "bufferView": 1,
      "componentType": 5126,
      "count": 20,
      "max": [
        0.9607999324798584,
        0.9379817843437195
      ],
      "min": [
        0.03920000046491623,
        0.03920000046491623
      ],
      "type": "VEC2"
    },
    {
      "bufferView": 1,
      "byteOffset": 160,
      "componentType": 5126,
      "count": 20,
      "max": [
        1.0,
        1.0
      ],
      "min": [
        2.9802322387695313e-08,
        0.0
      ],
      "type": "VEC2"
    },
    {
      "bufferView": 0,
      "componentType": 5125,
      "count": 30,
      "type": "SCALAR"
    },
    {
      "bufferView": 2,
      "byteOffset": 480,
      "componentType": 5126,
      "count": 56,
      "max": [
        88.0218276977539,
        68.21504211425781,
        0.04031252861022949
      ],
      "min": [
        -80.3564682006836,
        -68.21503448486328,
        -0.5969660878181458
      ],
      "type": "VEC3"
    },
    {
      "bufferView": 2,
      "byteOffset": 1152,
      "componentType": 5126,
      "count": 56,
      "max": [
        0.5374248027801514,
        0.5374248027801514,
        -0.8433117270469666
      ],
      "min": [
        -0.5374248027801514,
        -0.5374248027801514,
        -1.0
      ],
      "type": "VEC3"
    },
    {
      "bufferView": 1,
      "byteOffset": 320,
      "componentType": 5126,
      "count": 56,
      "max": [
        88.02183532714844,
        68.21504211425781
      ],
      "min": [
        -80.35647583007813,
        -68.21504211425781
      ],
      "type": "VEC2"
    },
    {
      "bufferView": 0,
      "byteOffset": 120,
      "componentType": 5125,
      "count": 72,
      "type": "SCALAR"
    },
    {
      "bufferView": 2,
      "byteOffset": 1824,
      "componentType": 5126,
      "count": 460,
      "max": [
        87.0218276977539,
        67.21504211425781,
        -0.23075225949287415
      ],
      "min": [
        -79.35647583007813,
        -67.9556655883789,
        -169.85003662109375
      ],
      "type": "VEC3"
    },
    {
      "bufferView": 2,
      "byteOffset": 7344,
      "componentType": 5126,
      "count": 460,
      "max": [
        1.0,
        1.0,
        1.0
      ],
      "min": [
        -1.0,
        -1.0,
        -1.0
      ],
      "type": "VEC3"
    },
    {
      "bufferView": 1,
      "byteOffset": 768,
      "componentType": 5126,
      "count": 460,
      "max": [
        88.02183532714844,
        68.21504211425781
      ],
      "min": [
        -80.35647583007813,
        -68.21504211425781
      ],
      "type": "VEC2"
    },
    {
      "bufferView": 1,
      "byteOffset": 4448,
      "componentType": 5126,
      "count": 460,
      "max": [
        87.0218276977539,
        67.21504211425781
      ],
      "min": [
        -79.35647583007813,
        -67.21504211425781
      ],
      "type": "VEC2"
    },
    {
      "bufferView": 0,
      "byteOffset": 408,
      "componentType": 5125,
      "count": 648,
      "type": "SCALAR"
    },
    {
      "bufferView": 2,
      "byteOffset": 12864,
      "componentType": 5126,
      "count": 1876,
      "max": [
        88.02182006835938,
        68.21502685546875,
        7.500006675720215
      ],
      "min": [
        -80.35646057128906,
        -68.25566864013672,
        -66.54869842529297
      ],
      "type": "VEC3"
    },
    {
      "bufferView": 2,
      "byteOffset": 35376,
      "componentType": 5126,
      "count": 1876,
      "max": [
        1.0,
        1.0,
        1.0
      ],
      "min": [
        -1.0,
        -1.0,
        -1.0
      ],
      "type": "VEC3"
    },
    {
      "bufferView": 1,
      "byteOffset": 8128,
      "componentType": 5126,
      "count": 1876,
      "max": [
        0.9989999532699585,
        0.9966042041778564
      ],
      "min": [
        0.0010000000474974513,
        0.0010000000474974513
      ],
      "type": "VEC2"
    },
    {
      "bufferView": 1,
      "byteOffset": 23136,
      "componentType": 5126,
      "count": 1876,
      "max": [
        92.97514343261719,
        66.07475280761719
      ],
      "min": [
        -90.67007446289063,
        -83.06278991699219
      ],
      "type": "VEC2"
    },
    {
      "bufferView": 0,
      "byteOffset": 3000,
      "componentType": 5125,
      "count": 2616,
      "type": "SCALAR"
    },
    {
      "bufferView": 2,
      "byteOffset": 57888,
      "componentType": 5126,
      "count": 60,
      "max": [
        46.420127868652344,
        -56.28136444091797,
        -44.473236083984375
      ],
      "min": [
        42.58123779296875,
        -66.24542999267578,
        -58.17548370361328
      ],
      "type": "VEC3"
    },
    {
      "bufferView": 2,
      "byteOffset": 58608,
      "componentType": 5126,
      "count": 60,
      "max": [
        1.0,
        1.0,
        1.0
      ],
      "min": [
        -1.0,
        -1.0,
        0.0
      ],
      "type": "VEC3"
    },
    {
      "bufferView": 1,
      "byteOffset": 38144,
      "componentType": 5126,
      "count": 60,
      "max": [
        1.0,
        0.0
      ],
      "min": [
        0.0,
        0.0
      ],
      "type": "VEC2"
    },
    {
      "bufferView": 0,
      "byteOffset": 13464,
      "componentType": 5125,
      "count": 90,
      "type": "SCALAR"
    },
    {
      "bufferView": 2,
      "byteOffset": 59328,
      "componentType": 5126,
      "count": 864,
      "max": [
        21.75472640991211,
        -4.568206787109375,
        0.4770507514476776
      ],
      "min": [
        -114.29718780517578,
        -172.74395751953125,
        -64.06716918945313
      ],
      "type": "VEC3"
    },
    {
      "bufferView": 2,
      "byteOffset": 69696,
      "componentType": 5126,
      "count": 864,
      "max": [
        1.0,
        1.0,
        1.0
      ],
      "min": [
        -1.0,
        -1.0,
        -1.0
      ],
      "type": "VEC3"
    },
    {
      "bufferView": 1,
      "byteOffset": 38624,
      "componentType": 5126,
      "count": 864,
      "max": [
        1.0,
        1.0
      ],
      "min": [
        0.0,
        0.0
      ],
      "type": "VEC2"
    },
    {
      "bufferView": 1,
      "byteOffset": 45536,
      "componentType": 5126,
      "count": 864,
      "max": [
        21.75472640991211,
        0.19579197466373444
      ],
      "min": [
        -99.74465942382813,
        -162.70819091796875
      ],
      "type": "VEC2"
    },
    {
      "bufferView": 0,
      "byteOffset": 13824,
      "componentType": 5125,
      "count": 1296,
      "type": "SCALAR"
    },
    {
      "bufferView": 2,
      "byteOffset": 80064,
      "componentType": 5126,
      "count": 144,
      "max": [
        55.000640869140625,
        32.443946838378906,
        -64.0671615600586
      ],
      "min": [
        -80.36000061035156,
        -135.7318115234375,
        -66.5487060546875
      ],
      "type": "VEC3"
    },
    {
      "bufferView": 2,
      "byteOffset": 81792,
      "componentType": 5126,
      "count": 144,
      "max": [
        1.0,
        1.0,
        1.0
      ],
      "min": [
        -1.0,
        -1.0,
        -1.0
      ],
      "type": "VEC3"
    },
    {
      "bufferView": 1,
      "byteOffset": 52448,
      "componentType": 5126,
      "count": 144,
      "max": [
        0.29261553287506104,
        0.9607999324798584
      ],
      "min": [
        0.18366555869579315,
        0.714489221572876
      ],
      "type": "VEC2"
    },
    {
      "bufferView": 1,
      "byteOffset": 53600,
      "componentType": 5126,
      "count": 144,
      "max": [
        1.0,
        1.0
      ],
      "min": [
        0.0,
        0.0
      ],
      "type": "VEC2"
    },
    {
      "bufferView": 0,
      "byteOffset": 19008,
      "componentType": 5125,
      "count": 216,
      "type": "SCALAR"
    }
  ],
  "asset": {
    "extras": {
      "author": "Nikitos & 3130 (https://sketchfab.com/vrcityphoto)",
      "license": "CC-BY-4.0 (http://creativecommons.org/licenses/by/4.0/)",
      "source": "https://sketchfab.com/3d-models/shop-42510bda855c4e60bf5cf7ecb9a2a57c",
      "title": "Shop"
    },
    "generator": "Sketchfab-12.68.0",
    "version": "2.0"
  },
  "bufferViews": [
    {
      "buffer": 0,
      "byteLength": 19872,
      "name": "floatBufferViews",
      "target": 34963
    },
    {
      "buffer": 0,
      "byteLength": 54752,
      "byteOffset": 19872,
      "byteStride": 8,
      "name": "floatBufferViews",
      "target": 34962
    },
    {
      "buffer": 0,
      "byteLength": 83520,
      "byteOffset": 74624,
      "byteStride": 12,
      "name": "floatBufferViews",
      "target": 34962
    }
  ],
  "buffers": [
    {
      "byteLength": 158144,
      "uri": "scene.bin"
    }
  ],
  "images": [
    {
      "uri": "textures/Rectangle009__0_emissive.jpeg"
    },
    {
      "uri": "textures/PLASTIK_W_baseColor.jpeg"
    }
  ],
  "materials": [
    {
      "doubleSided": true,
      "emissiveFactor": [
        1.0,
        1.0,
        1.0
      ],
      "emissiveTexture": {
        "index": 0
      },
      "name": "Rectangle009__0",
      "pbrMetallicRoughness": {
        "metallicFactor": 0.0,
        "roughnessFactor": 0.6
      }
    },
    {
      "doubleSided": true,
      "emissiveFactor": [
        1.0,
        1.0,
        1.0
      ],
      "emissiveTexture": {
        "index": 1
      },
      "name": "PLASTIK_W",
      "pbrMetallicRoughness": {
        "baseColorTexture": {
          "index": 1
        },
        "metallicFactor": 0.0,
        "roughnessFactor": 0.6
      }
    },
    {
      "doubleSided": true,
      "emissiveFactor": [
        1.0,
        1.0,
        1.0
      ],
      "name": "light",
      "pbrMetallicRoughness": {
        "metallicFactor": 0.0,
        "roughnessFactor": 0.6
      }
    },
    {
      "alphaMode": "BLEND",
      "doubleSided": true,
      "name": "01_-_Default",
      "pbrMetallicRoughness": {
        "baseColorFactor": [
          0.588235,
          0.588235,
          0.588235,
          0.08075229982549903
        ],
        "metallicFactor": 0.0,
        "roughnessFactor": 0.6
      }
    }
  ],
  "meshes": [
    {
      "name": "Rectangle009__0",
      "primitives": [
        {
          "attributes": {
            "NORMAL": 1,
            "POSITION": 0,
            "TEXCOORD_0": 2,
            "TEXCOORD_1": 3
          },
          "indices": 4,
          "material": 0,
          "mode": 4
        }
      ]
    },
    {
      "name": "Object002_PLASTIK_W_0",
      "primitives": [
        {
          "attributes": {
            "NORMAL": 6,
            "POSITION": 5,
            "TEXCOORD_0": 7
          },
          "indices": 8,
          "material": 1,
          "mode": 4
        }
      ]
    },
    {
      "name": "LIGHT_light_0",
      "primitives": [
        {
          "attributes": {
            "NORMAL": 10,
            "POSITION": 9,
            "TEXCOORD_0": 11,
            "TEXCOORD_1": 12
          },
          "indices": 13,
          "material": 2,
          "mode": 4
        }
      ]
    },
    {
      "name": "PLASTIK_W_PLASTIK_W_0",
      "primitives": [
        {
          "attributes": {
            "NORMAL": 15,
            "POSITION": 14,
            "TEXCOORD_0": 16,
            "TEXCOORD_1": 17
          },
          "indices": 18,
          "material": 1,
          "mode": 4
        }
      ]
    },
    {
      "name": "Object056_01 - Default_0",
      "primitives": [
        {
          "attributes": {
            "NORMAL": 20,
            "POSITION": 19,
            "TEXCOORD_0": 21
          },
          "indices": 22,
          "material": 3,
          "mode": 4
        }
      ]
    },
    {
      "name": "glass_01 - Default_0",
      "primitives": [
        {
          "attributes": {
            "NORMAL": 24,
            "POSITION": 23,
            "TEXCOORD_0": 25,
            "TEXCOORD_1": 26
          },
          "indices": 27,
          "material": 3,
          "mode": 4
        }
      ]
    },
    {
      "name": "black_met__0",
      "primitives": [
        {
          "attributes": {
            "NORMAL": 29,
            "POSITION": 28,
            "TEXCOORD_0": 30,
            "TEXCOORD_1": 31
          },
          "indices": 32,
          "material": 0,
          "mode": 4
        }
      ]
    }
  ],
  "nodes": [
    {
      "children": [
        1
      ],
      "matrix": [
        -0.011558711528778076,
        3.2743163665545575e-18,
        7.270442840111707e-34,
        0.0,
        0.0,
        2.5665495348499326e-18,
        -0.011558711528778076,
        0.0,
        -3.2743163665545575e-18,
        -0.011558711528778076,
        -2.5665495348499326e-18,
        0.0,
        213.4801788330078,
        -243.41351318359375,
        -5.4048657368264974e-14,
        1.0
      ],
      "name": "Sketchfab_model"
    },
    {
      "children": [
        2
      ],
      "matrix": [
        1.0,
        0.0,
        0.0,
        0.0,
        0.0,
        -1.0,
        0.0,
        0.0,
        0.0,
        0.0,
        -1.0,
        0.0,
        0.0,
        0.0,
        0.0,
        1.0
      ],
      "name": "2aea6cc9139d4cf7b9454ca8237891e3.fbx"
    },
    {
      "children": [
        3,
        5,
        8,
        11,
        14,
        17,
        20
      ],
      "name": "RootNode"
    },
    {
      "children": [
        4
      ],
      "matrix": [
        1.0,
        0.0,
        0.0,
        0.0,
        0.0,
        1.0,
        0.0,
        0.0,
        0.0,
        0.0,
        1.0,
        0.0,
        106.74004364013672,
        94.86317443847656,
        4.94390869140625,
        1.0
      ],
      "name": "Rectangle009"
    },
    {
      "mesh": 0,
      "name": "Rectangle009__0"
    },
    {
      "children": [
        6
      ],
      "matrix": [
        3.2617132663726807,
        0.0,
        0.0,
        0.0,
        0.0,
        3.2617132663726807,
        0.0,
        0.0,
        0.0,
        0.0,
        0.7601143717765808,
        0.0,
        106.65404510498047,
        318.0655517578125,
        4.943948745727539,
        1.0
      ],
      "name": "Object002"
    },
    {
      "children": [
        7
      ],
      "matrix": [
        1.0,
        0.0,
        -0.0,
        0.0,
        0.0,
        1.0,
        0.0,
        0.0,
        0.0,
        0.0,
        1.0,
        0.0,
        -3.832679510116577,
        -68.21503448486328,
        285.01470947265625,
        1.0
      ],
      "name": "Object_6"
    },
    {
      "mesh": 1,
      "name": "Object002_PLASTIK_W_0"
    },
    {
      "children": [
        9
      ],
      "matrix": [
        3.2617132663726807,
        0.0,
        0.0,
        0.0,
        0.0,
        3.2617132663726807,
        0.0,
        0.0,
        0.0,
        0.0,
        0.7601143717765808,
        0.0,
        106.6540298461914,
        318.0655517578125,
        4.943948745727539,
        1.0
      ],
      "name": "LIGHT"
    },
    {
      "children": [
        10
      ],
      "matrix": [
        1.0,
        0.0,
        -0.0,
        0.0,
        0.0,
        1.0,
        0.0,
        0.0,
        0.0,
        0.0,
        1.0,
        0.0,
        -3.832676887512207,
        -68.21502685546875,
        285.0146484375,
        1.0
      ],
      "name": "Object_9"
    },
    {
      "mesh": 2,
      "name": "LIGHT_light_0"
    },
    {
      "children": [
        12
      ],
      "matrix": [
        3.2617132663726807,
        0.0,
        0.0,
        0.0,
        0.0,
        3.2617132663726807,
        0.0,
        0.0,
        0.0,
        0.0,
        3.2617132663726807,
        0.0,
        111.47416687011719,
        318.0655517578125,
        4.9439239501953125,
        1.0
      ],
      "name": "PLASTIK_W"
    },
    {
      "children": [
        13
      ],
      "matrix": [
        1.0,
        0.0,
        -0.0,
        0.0,
        0.0,
        1.0,
        0.0,
        0.0,
        0.0,
        0.0,
        1.0,
        0.0,
        -5.31046724319458,
        -68.21501922607422,
        66.5487060546875,
        1.0
      ],
      "name": "Object_12"
    },
    {
      "mesh": 3,
      "name": "PLASTIK_W_PLASTIK_W_0"
    },
    {
      "children": [
        15
      ],
      "matrix": [
        -3.2617132663726442,
        4.925050199143509e-07,
        0.0,
        0.0,
        -4.925050199143509e-07,
        -3.2617132663726442,
        0.0,
        0.0,
        0.0,
        0.0,
        3.2617132663726807,
        0.0,
        137.81747436523438,
        318.0655822753906,
        4.943932056427002,
        1.0
      ],
      "name": "Object056"
    },
    {
      "children": [
        16
      ],
      "matrix": [
        1.0,
        0.0,
        -0.0,
        0.0,
        0.0,
        1.0,
        0.0,
        0.0,
        0.0,
        0.0,
        1.0,
        0.0,
        -44.50067901611328,
        83.22698974609375,
        66.54871368408203,
        1.0
      ],
      "name": "Object_15"
    },
    {
      "mesh": 4,
      "name": "Object056_01 - Default_0"
    },
    {
      "children": [
        18
      ],
      "matrix": [
        -5.314005876905201e-07,
        -3.2617132663726376,
        0.0,
        0.0,
        3.2617132663726376,
        -5.314005876905201e-07,
        0.0,
        0.0,
        0.0,
        0.0,
        3.2617132663726807,
        0.0,
        395.48291015625,
        318.06561279296875,
        4.943940162658691,
        1.0
      ],
      "name": "glass"
    },
    {
      "children": [
        19
      ],
      "matrix": [
        1.0,
        0.0,
        -0.0,
        0.0,
        0.0,
        1.0,
        0.0,
        0.0,
        0.0,
        0.0,
        1.0,
        0.0,
        114.71600341796875,
        1.868961044237949e-05,
        66.5487060546875,
        1.0
      ],
      "name": "Object_18"
    },
    {
      "mesh": 5,
      "name": "glass_01 - Default_0"
    },
    {
      "children": [
        21
      ],
      "matrix": [
        -5.314005876905201e-07,
        -3.2617132663726376,
        0.0,
        0.0,
        3.2617132663726376,
        -5.314005876905201e-07,
        0.0,
        0.0,
        0.0,
        0.0,
        3.2617132663726807,
        0.0,
        97.25872039794922,
        318.06561279296875,
        4.9439239501953125,
        1.0
      ],
      "name": "black_met"
    },
    {
      "children": [
        22
      ],
      "matrix": [
        1.0,
        0.0,
        -0.0,
        0.0,
        0.0,
        1.0,
        0.0,
        0.0,
        0.0,
        0.0,
        1.0,
        0.0,
        80.77879333496094,
        54.419639587402344,
        66.54871368408203,
        1.0
      ],
      "name": "Object_21"
    },
    {
      "mesh": 6,
      "name": "black_met__0"
    }
  ],
  "samplers": [
    {
      "magFilter": 9729,
      "minFilter": 9987,
      "wrapS": 10497,
      "wrapT": 10497
    }
  ],
  "scene": 0,
  "scenes": [
    {
      "name": "Sketchfab_Scene",
      "nodes": [
        0
      ]
    }
  ],
  "textures": [
    {
      "sampler": 0,
      "source": 0
    },
    {
      "sampler": 0,
      "source": 1
    }
  ]
}
